<svg xmlns="http://www.w3.org/2000/svg" viewBox="0 0 64 64">
  <rect width="64" height="64" rx="18" fill="#10182b" />
  <circle cx="32" cy="32" r="24" fill="#ffcc4d" />
  <path
    d="M17 26c2.6-3 8.5-4 13.2-1.9 1.2.5 2.4.5 3.6 0C38.5 22 44.4 23 47 26"
    fill="#292f33"
  />
  <path
    d="M18.5 27.5c.9 4 4 6.7 7.7 6.7 3.4 0 6.2-2.2 7.3-5.5 1.1 3.3 3.9 5.5 7.3 5.5 3.7 0 6.8-2.7 7.7-6.7"
    fill="#31373d"
  />
  <rect x="16.5" y="24.5" width="15" height="8" rx="4" fill="#1f2328" />
  <rect x="32.5" y="24.5" width="15" height="8" rx="4" fill="#1f2328" />
  <rect x="29.5" y="26.7" width="5" height="2.6" rx="1.3" fill="#1f2328" />
  <path
    d="M23.2 44.4c2.6 2.3 5.6 3.4 8.8 3.4 3.2 0 6.2-1.1 8.8-3.4"
    fill="none"
    stroke="#7a4b12"
    stroke-linecap="round"
    stroke-width="3.4"
  />
  <path
    d="M21.5 21.6c1.6-2.6 4.4-4.2 7.3-4.2M42.5 21.6c-1.6-2.6-4.4-4.2-7.3-4.2"
    fill="none"
    stroke="#7a4b12"
    stroke-linecap="round"
    stroke-width="2.6"
  />
</svg>
